<svg width="1240" height="764" viewBox="0 0 1240 764" fill="none" xmlns="http://www.w3.org/2000/svg">
<g style="mix-blend-mode:soft-light" opacity="0.7">
<path d="M36.1435 11.127H8.34082V48.2145M36.1435 11.127V48.2145M36.1435 11.127H63.9462M36.1435 48.2145H8.34082M36.1435 48.2145V85.302M36.1435 48.2145H63.9462M8.34082 48.2145V85.302M36.1435 85.302H8.34082M36.1435 85.302V122.39M36.1435 85.302H63.9462M8.34082 85.302V122.39M36.1435 122.39H8.34082M36.1435 122.39V159.477M36.1435 122.39H63.9462M8.34082 122.39V159.477M36.1435 159.477H8.34082M36.1435 159.477V196.565M36.1435 159.477H63.9462M8.34082 159.477V196.565M36.1435 196.565H8.34082M36.1435 196.565V233.652M36.1435 196.565H63.9462M8.34082 196.565V233.652M36.1435 233.652H8.34082M36.1435 233.652V270.74M36.1435 233.652H63.9462M8.34082 233.652V270.74M36.1435 270.74H8.34082M36.1435 270.74V307.827M36.1435 270.74H63.9462M8.34082 270.74V307.827M36.1435 307.827H8.34082M36.1435 307.827V344.915M36.1435 307.827H63.9462M8.34082 307.827V344.915M36.1435 344.915H8.34082M36.1435 344.915V382.002M36.1435 344.915H63.9462M8.34082 344.915V382.002M36.1435 382.002H8.34082M36.1435 382.002V419.09M36.1435 382.002H63.9462M8.34082 382.002V419.09M36.1435 419.09H8.34082M36.1435 419.09V456.177M36.1435 419.09H63.9462M8.34082 419.09V456.177M36.1435 456.177H8.34082M36.1435 456.177V493.265M36.1435 456.177H63.9462M8.34082 456.177V493.265M36.1435 493.265H8.34082M36.1435 493.265V530.352M36.1435 493.265H63.9462M8.34082 493.265V530.352M36.1435 530.352H8.34082M36.1435 530.352V567.44M36.1435 530.352H63.9462M8.34082 530.352V567.44M36.1435 567.44H8.34082M36.1435 567.44V604.527M36.1435 567.44H63.9462M8.34082 567.44V604.527M36.1435 604.527H8.34082M36.1435 604.527V641.615M36.1435 604.527H63.9462M8.34082 604.527V641.615M36.1435 641.615H8.34082M36.1435 641.615V678.702M36.1435 641.615H63.9462M8.34082 641.615V678.702M36.1435 678.702H8.34082M36.1435 678.702V715.79M36.1435 678.702H63.9462M8.34082 678.702V715.79M36.1435 715.79H8.34082M36.1435 715.79V752.877M36.1435 715.79H63.9462M8.34082 715.79V752.877H36.1435M36.1435 752.877H63.9462M63.9462 11.127V48.2145M63.9462 11.127H91.7489M63.9462 48.2145V85.302M63.9462 48.2145H91.7489M63.9462 85.302V122.39M63.9462 85.302H91.7489M63.9462 122.39V159.477M63.9462 122.39H91.7489M63.9462 159.477V196.565M63.9462 159.477H91.7489M63.9462 196.565V233.652M63.9462 196.565H91.7489M63.9462 233.652V270.74M63.9462 233.652H91.7489M63.9462 270.74V307.827M63.9462 270.74H91.7489M63.9462 307.827V344.915M63.9462 307.827H91.7489M63.9462 344.915V382.002M63.9462 344.915H91.7489M63.9462 382.002V419.09M63.9462 382.002H91.7489M63.9462 419.09V456.177M63.9462 419.09H91.7489M63.9462 456.177V493.265M63.9462 456.177H91.7489M63.9462 493.265V530.352M63.9462 493.265H91.7489M63.9462 530.352V567.44M63.9462 530.352H91.7489M63.9462 567.44V604.527M63.9462 567.44H91.7489M63.9462 604.527V641.615M63.9462 604.527H91.7489M63.9462 641.615V678.702M63.9462 641.615H91.7489M63.9462 678.702V715.79M63.9462 678.702H91.7489M63.9462 715.79V752.877M63.9462 715.79H91.7489M63.9462 752.877H91.7489M91.7489 11.127V48.2145M91.7489 11.127H119.552M91.7489 48.2145V85.302M91.7489 48.2145H119.552M91.7489 85.302V122.39M91.7489 85.302H119.552M91.7489 122.39V159.477M91.7489 122.39H119.552M91.7489 159.477V196.565M91.7489 159.477H119.552M91.7489 196.565V233.652M91.7489 196.565H119.552M91.7489 233.652V270.74M91.7489 233.652H119.552M91.7489 270.74V307.827M91.7489 270.74H119.552M91.7489 307.827V344.915M91.7489 307.827H119.552M91.7489 344.915V382.002M91.7489 344.915H119.552M91.7489 382.002V419.09M91.7489 382.002H119.552M91.7489 419.09V456.177M91.7489 419.09H119.552M91.7489 456.177V493.265M91.7489 456.177H119.552M91.7489 493.265V530.352M91.7489 493.265H119.552M91.7489 530.352V567.44M91.7489 530.352H119.552M91.7489 567.44V604.527M91.7489 567.44H119.552M91.7489 604.527V641.615M91.7489 604.527H119.552M91.7489 641.615V678.702M91.7489 641.615H119.552M91.7489 678.702V715.79M91.7489 678.702H119.552M91.7489 715.79V752.877M91.7489 715.79H119.552M91.7489 752.877H119.552M119.552 11.127V48.2145M119.552 11.127H147.354M119.552 48.2145V85.302M119.552 48.2145H147.354M119.552 85.302V122.39M119.552 85.302H147.354M119.552 122.39V159.477M119.552 122.39H147.354M119.552 159.477V196.565M119.552 159.477H147.354M119.552 196.565V233.652M119.552 196.565H147.354M119.552 233.652V270.74M119.552 233.652H147.354M119.552 270.74V307.827M119.552 270.74H147.354M119.552 307.827V344.915M119.552 307.827H147.354M119.552 344.915V382.002M119.552 344.915H147.354M119.552 382.002V419.09M119.552 382.002H147.354M119.552 419.09V456.177M119.552 419.09H147.354M119.552 456.177V493.265M119.552 456.177H147.354M119.552 493.265V530.352M119.552 493.265H147.354M119.552 530.352V567.44M119.552 530.352H147.354M119.552 567.44V604.527M119.552 567.44H147.354M119.552 604.527V641.615M119.552 604.527H147.354M119.552 641.615V678.702M119.552 641.615H147.354M119.552 678.702V715.79M119.552 678.702H147.354M119.552 715.79V752.877M119.552 715.79H147.354M119.552 752.877H147.354M147.354 11.127V48.2145M147.354 11.127H175.157M147.354 48.2145V85.302M147.354 48.2145H175.157M147.354 85.302V122.39M147.354 85.302H175.157M147.354 122.39V159.477M147.354 122.39H175.157M147.354 159.477V196.565M147.354 159.477H175.157M147.354 196.565V233.652M147.354 196.565H175.157M147.354 233.652V270.74M147.354 233.652H175.157M147.354 270.74V307.827M147.354 270.74H175.157M147.354 307.827V344.915M147.354 307.827H175.157M147.354 344.915V382.002M147.354 344.915H175.157M147.354 382.002V419.09M147.354 382.002H175.157M147.354 419.09V456.177M147.354 419.09H175.157M147.354 456.177V493.265M147.354 456.177H175.157M147.354 493.265V530.352M147.354 493.265H175.157M147.354 530.352V567.44M147.354 530.352H175.157M147.354 567.44V604.527M147.354 567.44H175.157M147.354 604.527V641.615M147.354 604.527H175.157M147.354 641.615V678.702M147.354 641.615H175.157M147.354 678.702V715.79M147.354 678.702H175.157M147.354 715.79V752.877M147.354 715.79H175.157M147.354 752.877H175.157M175.157 11.127V48.2145M175.157 11.127H202.96M175.157 48.2145V85.302M175.157 48.2145H202.96M175.157 85.302V122.39M175.157 85.302H202.96M175.157 122.39V159.477M175.157 122.39H202.96M175.157 159.477V196.565M175.157 159.477H202.96M175.157 196.565V233.652M175.157 196.565H202.96M175.157 233.652V270.74M175.157 233.652H202.96M175.157 270.74V307.827M175.157 270.74H202.96M175.157 307.827V344.915M175.157 307.827H202.96M175.157 344.915V382.002M175.157 344.915H202.96M175.157 382.002V419.09M175.157 382.002H202.96M175.157 419.09V456.177M175.157 419.09H202.96M175.157 456.177V493.265M175.157 456.177H202.96M175.157 493.265V530.352M175.157 493.265H202.96M175.157 530.352V567.44M175.157 530.352H202.96M175.157 567.44V604.527M175.157 567.44H202.96M175.157 604.527V641.615M175.157 604.527H202.96M175.157 641.615V678.702M175.157 641.615H202.96M175.157 678.702V715.79M175.157 678.702H202.96M175.157 715.79V752.877M175.157 715.79H202.96M175.157 752.877H202.96M202.96 11.127V48.2145M202.96 11.127H230.762M202.96 48.2145V85.302M202.96 48.2145H230.762M202.96 85.302V122.39M202.96 85.302H230.762M202.96 122.39V159.477M202.96 122.39H230.762M202.96 159.477V196.565M202.96 159.477H230.762M202.96 196.565V233.652M202.96 196.565H230.762M202.96 233.652V270.74M202.96 233.652H230.762M202.96 270.74V307.827M202.96 270.74H230.762M202.96 307.827V344.915M202.96 307.827H230.762M202.96 344.915V382.002M202.96 344.915H230.762M202.96 382.002V419.09M202.96 382.002H230.762M202.96 419.09V456.177M202.96 419.09H230.762M202.96 456.177V493.265M202.96 456.177H230.762M202.96 493.265V530.352M202.96 493.265H230.762M202.96 530.352V567.44M202.96 530.352H230.762M202.96 567.44V604.527M202.96 567.44H230.762M202.96 604.527V641.615M202.96 604.527H230.762M202.96 641.615V678.702M202.96 641.615H230.762M202.96 678.702V715.79M202.96 678.702H230.762M202.96 715.79V752.877M202.96 715.79H230.762M202.96 752.877H230.762M230.762 11.127V48.2145M230.762 11.127H258.565M230.762 48.2145V85.302M230.762 48.2145H258.565M230.762 85.302V122.39M230.762 85.302H258.565M230.762 122.39V159.477M230.762 122.39H258.565M230.762 159.477V196.565M230.762 159.477H258.565M230.762 196.565V233.652M230.762 196.565H258.565M230.762 233.652V270.74M230.762 233.652H258.565M230.762 270.74V307.827M230.762 270.74H258.565M230.762 307.827V344.915M230.762 307.827H258.565M230.762 344.915V382.002M230.762 344.915H258.565M230.762 382.002V419.09M230.762 382.002H258.565M230.762 419.09V456.177M230.762 419.09H258.565M230.762 456.177V493.265M230.762 456.177H258.565M230.762 493.265V530.352M230.762 493.265H258.565M230.762 530.352V567.44M230.762 530.352H258.565M230.762 567.44V604.527M230.762 567.44H258.565M230.762 604.527V641.615M230.762 604.527H258.565M230.762 641.615V678.702M230.762 641.615H258.565M230.762 678.702V715.79M230.762 678.702H258.565M230.762 715.79V752.877M230.762 715.79H258.565M230.762 752.877H258.565M258.565 11.127V48.2145M258.565 11.127H286.368M258.565 48.2145V85.302M258.565 48.2145H286.368M258.565 85.302V122.39M258.565 85.302H286.368M258.565 122.39V159.477M258.565 122.39H286.368M258.565 159.477V196.565M258.565 159.477H286.368M258.565 196.565V233.652M258.565 196.565H286.368M258.565 233.652V270.74M258.565 233.652H286.368M258.565 270.74V307.827M258.565 270.74H286.368M258.565 307.827V344.915M258.565 307.827H286.368M258.565 344.915V382.002M258.565 344.915H286.368M258.565 382.002V419.09M258.565 382.002H286.368M258.565 419.09V456.177M258.565 419.09H286.368M258.565 456.177V493.265M258.565 456.177H286.368M258.565 493.265V530.352M258.565 493.265H286.368M258.565 530.352V567.44M258.565 530.352H286.368M258.565 567.44V604.527M258.565 567.44H286.368M258.565 604.527V641.615M258.565 604.527H286.368M258.565 641.615V678.702M258.565 641.615H286.368M258.565 678.702V715.79M258.565 678.702H286.368M258.565 715.79V752.877M258.565 715.79H286.368M258.565 752.877H286.368M286.368 11.127V48.2145M286.368 11.127H314.17M286.368 48.2145V85.302M286.368 48.2145H314.17M286.368 85.302V122.39M286.368 85.302H314.17M286.368 122.39V159.477M286.368 122.39H314.17M286.368 159.477V196.565M286.368 159.477H314.17M286.368 196.565V233.652M286.368 196.565H314.17M286.368 233.652V270.74M286.368 233.652H314.17M286.368 270.74V307.827M286.368 270.74H314.17M286.368 307.827V344.915M286.368 307.827H314.17M286.368 344.915V382.002M286.368 344.915H314.17M286.368 382.002V419.09M286.368 382.002H314.17M286.368 419.09V456.177M286.368 419.09H314.17M286.368 456.177V493.265M286.368 456.177H314.17M286.368 493.265V530.352M286.368 493.265H314.17M286.368 530.352V567.44M286.368 530.352H314.17M286.368 567.44V604.527M286.368 567.44H314.17M286.368 604.527V641.615M286.368 604.527H314.17M286.368 641.615V678.702M286.368 641.615H314.17M286.368 678.702V715.79M286.368 678.702H314.17M286.368 715.79V752.877M286.368 715.79H314.17M286.368 752.877H314.17M314.17 11.127V48.2145M314.17 11.127H341.973M314.17 48.2145V85.302M314.17 48.2145H341.973M314.17 85.302V122.39M314.17 85.302H341.973M314.17 122.39V159.477M314.17 122.39H341.973M314.17 159.477V196.565M314.17 159.477H341.973M314.17 196.565V233.652M314.17 196.565H341.973M314.17 233.652V270.74M314.17 233.652H341.973M314.17 270.74V307.827M314.17 270.74H341.973M314.17 307.827V344.915M314.17 307.827H341.973M314.17 344.915V382.002M314.17 344.915H341.973M314.17 382.002V419.09M314.17 382.002H341.973M314.17 419.09V456.177M314.17 419.09H341.973M314.17 456.177V493.265M314.17 456.177H341.973M314.17 493.265V530.352M314.17 493.265H341.973M314.17 530.352V567.44M314.17 530.352H341.973M314.17 567.44V604.527M314.17 567.44H341.973M314.17 604.527V641.615M314.17 604.527H341.973M314.17 641.615V678.702M314.17 641.615H341.973M314.17 678.702V715.79M314.17 678.702H341.973M314.17 715.79V752.877M314.17 715.79H341.973M314.17 752.877H341.973M341.973 11.127V48.2145M341.973 11.127H369.776M341.973 48.2145V85.302M341.973 48.2145H369.776M341.973 85.302V122.39M341.973 85.302H369.776M341.973 122.39V159.477M341.973 122.39H369.776M341.973 159.477V196.565M341.973 159.477H369.776M341.973 196.565V233.652M341.973 196.565H369.776M341.973 233.652V270.74M341.973 233.652H369.776M341.973 270.74V307.827M341.973 270.74H369.776M341.973 307.827V344.915M341.973 307.827H369.776M341.973 344.915V382.002M341.973 344.915H369.776M341.973 382.002V419.09M341.973 382.002H369.776M341.973 419.09V456.177M341.973 419.09H369.776M341.973 456.177V493.265M341.973 456.177H369.776M341.973 493.265V530.352M341.973 493.265H369.776M341.973 530.352V567.44M341.973 530.352H369.776M341.973 567.44V604.527M341.973 567.44H369.776M341.973 604.527V641.615M341.973 604.527H369.776M341.973 641.615V678.702M341.973 641.615H369.776M341.973 678.702V715.79M341.973 678.702H369.776M341.973 715.79V752.877M341.973 715.79H369.776M341.973 752.877H369.776M369.776 11.127V48.2145M369.776 11.127H397.578M369.776 48.2145V85.302M369.776 48.2145H397.578M369.776 85.302V122.39M369.776 85.302H397.578M369.776 122.39V159.477M369.776 122.39H397.578M369.776 159.477V196.565M369.776 159.477H397.578M369.776 196.565V233.652M369.776 196.565H397.578M369.776 233.652V270.74M369.776 233.652H397.578M369.776 270.74V307.827M369.776 270.74H397.578M369.776 307.827V344.915M369.776 307.827H397.578M369.776 344.915V382.002M369.776 344.915H397.578M369.776 382.002V419.09M369.776 382.002H397.578M369.776 419.09V456.177M369.776 419.09H397.578M369.776 456.177V493.265M369.776 456.177H397.578M369.776 493.265V530.352M369.776 493.265H397.578M369.776 530.352V567.44M369.776 530.352H397.578M369.776 567.44V604.527M369.776 567.44H397.578M369.776 604.527V641.615M369.776 604.527H397.578M369.776 641.615V678.702M369.776 641.615H397.578M369.776 678.702V715.79M369.776 678.702H397.578M369.776 715.79V752.877M369.776 715.79H397.578M369.776 752.877H397.578M397.578 11.127V48.2145M397.578 11.127H425.381M397.578 48.2145V85.302M397.578 48.2145H425.381M397.578 85.302V122.39M397.578 85.302H425.381M397.578 122.39V159.477M397.578 122.39H425.381M397.578 159.477V196.565M397.578 159.477H425.381M397.578 196.565V233.652M397.578 196.565H425.381M397.578 233.652V270.74M397.578 233.652H425.381M397.578 270.74V307.827M397.578 270.74H425.381M397.578 307.827V344.915M397.578 307.827H425.381M397.578 344.915V382.002M397.578 344.915H425.381M397.578 382.002V419.09M397.578 382.002H425.381M397.578 419.09V456.177M397.578 419.09H425.381M397.578 456.177V493.265M397.578 456.177H425.381M397.578 493.265V530.352M397.578 493.265H425.381M397.578 530.352V567.44M397.578 530.352H425.381M397.578 567.44V604.527M397.578 567.44H425.381M397.578 604.527V641.615M397.578 604.527H425.381M397.578 641.615V678.702M397.578 641.615H425.381M397.578 678.702V715.79M397.578 678.702H425.381M397.578 715.79V752.877M397.578 715.79H425.381M397.578 752.877H425.381M425.381 11.127V48.2145M425.381 11.127H453.184M425.381 48.2145V85.302M425.381 48.2145H453.184M425.381 85.302V122.39M425.381 85.302H453.184M425.381 122.39V159.477M425.381 122.39H453.184M425.381 159.477V196.565M425.381 159.477H453.184M425.381 196.565V233.652M425.381 196.565H453.184M425.381 233.652V270.74M425.381 233.652H453.184M425.381 270.74V307.827M425.381 270.74H453.184M425.381 307.827V344.915M425.381 307.827H453.184M425.381 344.915V382.002M425.381 344.915H453.184M425.381 382.002V419.09M425.381 382.002H453.184M425.381 419.09V456.177M425.381 419.09H453.184M425.381 456.177V493.265M425.381 456.177H453.184M425.381 493.265V530.352M425.381 493.265H453.184M425.381 530.352V567.44M425.381 530.352H453.184M425.381 567.44V604.527M425.381 567.44H453.184M425.381 604.527V641.615M425.381 604.527H453.184M425.381 641.615V678.702M425.381 641.615H453.184M425.381 678.702V715.79M425.381 678.702H453.184M425.381 715.79V752.877M425.381 715.79H453.184M425.381 752.877H453.184M453.184 11.127V48.2145M453.184 11.127H480.987M453.184 48.2145V85.302M453.184 48.2145H480.987M453.184 85.302V122.39M453.184 85.302H480.987M453.184 122.39V159.477M453.184 122.39H480.987M453.184 159.477V196.565M453.184 159.477H480.987M453.184 196.565V233.652M453.184 196.565H480.987M453.184 233.652V270.74M453.184 233.652H480.987M453.184 270.74V307.827M453.184 270.74H480.987M453.184 307.827V344.915M453.184 307.827H480.987M453.184 344.915V382.002M453.184 344.915H480.987M453.184 382.002V419.09M453.184 382.002H480.987M453.184 419.09V456.177M453.184 419.09H480.987M453.184 456.177V493.265M453.184 456.177H480.987M453.184 493.265V530.352M453.184 493.265H480.987M453.184 530.352V567.44M453.184 530.352H480.987M453.184 567.44V604.527M453.184 567.44H480.987M453.184 604.527V641.615M453.184 604.527H480.987M453.184 641.615V678.702M453.184 641.615H480.987M453.184 678.702V715.79M453.184 678.702H480.987M453.184 715.79V752.877M453.184 715.79H480.987M453.184 752.877H480.987M480.987 11.127V48.2145M480.987 11.127H508.789M480.987 48.2145V85.302M480.987 48.2145H508.789M480.987 85.302V122.39M480.987 85.302H508.789M480.987 122.39V159.477M480.987 122.39H508.789M480.987 159.477V196.565M480.987 159.477H508.789M480.987 196.565V233.652M480.987 196.565H508.789M480.987 233.652V270.74M480.987 233.652H508.789M480.987 270.74V307.827M480.987 270.74H508.789M480.987 307.827V344.915M480.987 307.827H508.789M480.987 344.915V382.002M480.987 344.915H508.789M480.987 382.002V419.09M480.987 382.002H508.789M480.987 419.09V456.177M480.987 419.09H508.789M480.987 456.177V493.265M480.987 456.177H508.789M480.987 493.265V530.352M480.987 493.265H508.789M480.987 530.352V567.44M480.987 530.352H508.789M480.987 567.44V604.527M480.987 567.44H508.789M480.987 604.527V641.615M480.987 604.527H508.789M480.987 641.615V678.702M480.987 641.615H508.789M480.987 678.702V715.79M480.987 678.702H508.789M480.987 715.79V752.877M480.987 715.79H508.789M480.987 752.877H508.789M508.789 11.127V48.2145M508.789 11.127H536.592M508.789 48.2145V85.302M508.789 48.2145H536.592M508.789 85.302V122.39M508.789 85.302H536.592M508.789 122.39V159.477M508.789 122.39H536.592M508.789 159.477V196.565M508.789 159.477H536.592M508.789 196.565V233.652M508.789 196.565H536.592M508.789 233.652V270.74M508.789 233.652H536.592M508.789 270.74V307.827M508.789 270.74H536.592M508.789 307.827V344.915M508.789 307.827H536.592M508.789 344.915V382.002M508.789 344.915H536.592M508.789 382.002V419.09M508.789 382.002H536.592M508.789 419.09V456.177M508.789 419.09H536.592M508.789 456.177V493.265M508.789 456.177H536.592M508.789 493.265V530.352M508.789 493.265H536.592M508.789 530.352V567.44M508.789 530.352H536.592M508.789 567.44V604.527M508.789 567.44H536.592M508.789 604.527V641.615M508.789 604.527H536.592M508.789 641.615V678.702M508.789 641.615H536.592M508.789 678.702V715.79M508.789 678.702H536.592M508.789 715.79V752.877M508.789 715.79H536.592M508.789 752.877H536.592M536.592 11.127V48.2145M536.592 11.127H564.395M536.592 48.2145V85.302M536.592 48.2145H564.395M536.592 85.302V122.39M536.592 85.302H564.395M536.592 122.39V159.477M536.592 122.39H564.395M536.592 159.477V196.565M536.592 159.477H564.395M536.592 196.565V233.652M536.592 196.565H564.395M536.592 233.652V270.74M536.592 233.652H564.395M536.592 270.74V307.827M536.592 270.74H564.395M536.592 307.827V344.915M536.592 307.827H564.395M536.592 344.915V382.002M536.592 344.915H564.395M536.592 382.002V419.09M536.592 382.002H564.395M536.592 419.09V456.177M536.592 419.09H564.395M536.592 456.177V493.265M536.592 456.177H564.395M536.592 493.265V530.352M536.592 493.265H564.395M536.592 530.352V567.44M536.592 530.352H564.395M536.592 567.44V604.527M536.592 567.44H564.395M536.592 604.527V641.615M536.592 604.527H564.395M536.592 641.615V678.702M536.592 641.615H564.395M536.592 678.702V715.79M536.592 678.702H564.395M536.592 715.79V752.877M536.592 715.79H564.395M536.592 752.877H564.395M564.395 11.127V48.2145M564.395 11.127H592.197M564.395 48.2145V85.302M564.395 48.2145H592.197M564.395 85.302V122.39M564.395 85.302H592.197M564.395 122.39V159.477M564.395 122.39H592.197M564.395 159.477V196.565M564.395 159.477H592.197M564.395 196.565V233.652M564.395 196.565H592.197M564.395 233.652V270.74M564.395 233.652H592.197M564.395 270.74V307.827M564.395 270.74H592.197M564.395 307.827V344.915M564.395 307.827H592.197M564.395 344.915V382.002M564.395 344.915H592.197M564.395 382.002V419.09M564.395 382.002H592.197M564.395 419.09V456.177M564.395 419.09H592.197M564.395 456.177V493.265M564.395 456.177H592.197M564.395 493.265V530.352M564.395 493.265H592.197M564.395 530.352V567.44M564.395 530.352H592.197M564.395 567.44V604.527M564.395 567.44H592.197M564.395 604.527V641.615M564.395 604.527H592.197M564.395 641.615V678.702M564.395 641.615H592.197M564.395 678.702V715.79M564.395 678.702H592.197M564.395 715.79V752.877M564.395 715.79H592.197M564.395 752.877H592.197M592.197 11.127V48.2145M592.197 11.127H620M592.197 48.2145V85.302M592.197 48.2145H620M592.197 85.302V122.39M592.197 85.302H620M592.197 122.39V159.477M592.197 122.39H620M592.197 159.477V196.565M592.197 159.477H620M592.197 196.565V233.652M592.197 196.565H620M592.197 233.652V270.74M592.197 233.652H620M592.197 270.74V307.827M592.197 270.74H620M592.197 307.827V344.915M592.197 307.827H620M592.197 344.915V382.002M592.197 344.915H620M592.197 382.002V419.09M592.197 382.002H620M592.197 419.09V456.177M592.197 419.09H620M592.197 456.177V493.265M592.197 456.177H620M592.197 493.265V530.352M592.197 493.265H620M592.197 530.352V567.44M592.197 530.352H620M592.197 567.44V604.527M592.197 567.44H620M592.197 604.527V641.615M592.197 604.527H620M592.197 641.615V678.702M592.197 641.615H620M592.197 678.702V715.79M592.197 678.702H620M592.197 715.79V752.877M592.197 715.79H620M592.197 752.877H620M620 11.127V48.2145M620 11.127H647.803M620 48.2145V85.302M620 48.2145H647.803M620 85.302V122.39M620 85.302H647.803M620 122.39V159.477M620 122.39H647.803M620 159.477V196.565M620 159.477H647.803M620 196.565V233.652M620 196.565H647.803M620 233.652V270.74M620 233.652H647.803M620 270.74V307.827M620 270.74H647.803M620 307.827V344.915M620 307.827H647.803M620 344.915V382.002M620 344.915H647.803M620 382.002V419.09M620 382.002H647.803M620 419.09V456.177M620 419.09H647.803M620 456.177V493.265M620 456.177H647.803M620 493.265V530.352M620 493.265H647.803M620 530.352V567.44M620 530.352H647.803M620 567.44V604.527M620 567.44H647.803M620 604.527V641.615M620 604.527H647.803M620 641.615V678.702M620 641.615H647.803M620 678.702V715.79M620 678.702H647.803M620 715.79V752.877M620 715.79H647.803M620 752.877H647.803M647.803 11.127V48.2145M647.803 11.127H675.605M647.803 48.2145V85.302M647.803 48.2145H675.605M647.803 85.302V122.39M647.803 85.302H675.605M647.803 122.39V159.477M647.803 122.39H675.605M647.803 159.477V196.565M647.803 159.477H675.605M647.803 196.565V233.652M647.803 196.565H675.605M647.803 233.652V270.74M647.803 233.652H675.605M647.803 270.74V307.827M647.803 270.74H675.605M647.803 307.827V344.915M647.803 307.827H675.605M647.803 344.915V382.002M647.803 344.915H675.605M647.803 382.002V419.09M647.803 382.002H675.605M647.803 419.09V456.177M647.803 419.09H675.605M647.803 456.177V493.265M647.803 456.177H675.605M647.803 493.265V530.352M647.803 493.265H675.605M647.803 530.352V567.44M647.803 530.352H675.605M647.803 567.44V604.527M647.803 567.44H675.605M647.803 604.527V641.615M647.803 604.527H675.605M647.803 641.615V678.702M647.803 641.615H675.605M647.803 678.702V715.79M647.803 678.702H675.605M647.803 715.79V752.877M647.803 715.79H675.605M647.803 752.877H675.605M675.605 11.127V48.2145M675.605 11.127H703.408M675.605 48.2145V85.302M675.605 48.2145H703.408M675.605 85.302V122.39M675.605 85.302H703.408M675.605 122.39V159.477M675.605 122.39H703.408M675.605 159.477V196.565M675.605 159.477H703.408M675.605 196.565V233.652M675.605 196.565H703.408M675.605 233.652V270.74M675.605 233.652H703.408M675.605 270.74V307.827M675.605 270.74H703.408M675.605 307.827V344.915M675.605 307.827H703.408M675.605 344.915V382.002M675.605 344.915H703.408M675.605 382.002V419.09M675.605 382.002H703.408M675.605 419.09V456.177M675.605 419.09H703.408M675.605 456.177V493.265M675.605 456.177H703.408M675.605 493.265V530.352M675.605 493.265H703.408M675.605 530.352V567.44M675.605 530.352H703.408M675.605 567.44V604.527M675.605 567.44H703.408M675.605 604.527V641.615M675.605 604.527H703.408M675.605 641.615V678.702M675.605 641.615H703.408M675.605 678.702V715.79M675.605 678.702H703.408M675.605 715.79V752.877M675.605 715.79H703.408M675.605 752.877H703.408M703.408 11.127V48.2145M703.408 11.127H731.211M703.408 48.2145V85.302M703.408 48.2145H731.211M703.408 85.302V122.39M703.408 85.302H731.211M703.408 122.39V159.477M703.408 122.39H731.211M703.408 159.477V196.565M703.408 159.477H731.211M703.408 196.565V233.652M703.408 196.565H731.211M703.408 233.652V270.74M703.408 233.652H731.211M703.408 270.74V307.827M703.408 270.74H731.211M703.408 307.827V344.915M703.408 307.827H731.211M703.408 344.915V382.002M703.408 344.915H731.211M703.408 382.002V419.09M703.408 382.002H731.211M703.408 419.09V456.177M703.408 419.09H731.211M703.408 456.177V493.265M703.408 456.177H731.211M703.408 493.265V530.352M703.408 493.265H731.211M703.408 530.352V567.44M703.408 530.352H731.211M703.408 567.44V604.527M703.408 567.44H731.211M703.408 604.527V641.615M703.408 604.527H731.211M703.408 641.615V678.702M703.408 641.615H731.211M703.408 678.702V715.79M703.408 678.702H731.211M703.408 715.79V752.877M703.408 715.79H731.211M703.408 752.877H731.211M731.211 11.127V48.2145M731.211 11.127H759.013M731.211 48.2145V85.302M731.211 48.2145H759.013M731.211 85.302V122.39M731.211 85.302H759.013M731.211 122.39V159.477M731.211 122.39H759.013M731.211 159.477V196.565M731.211 159.477H759.013M731.211 196.565V233.652M731.211 196.565H759.013M731.211 233.652V270.74M731.211 233.652H759.013M731.211 270.74V307.827M731.211 270.74H759.013M731.211 307.827V344.915M731.211 307.827H759.013M731.211 344.915V382.002M731.211 344.915H759.013M731.211 382.002V419.09M731.211 382.002H759.013M731.211 419.09V456.177M731.211 419.09H759.013M731.211 456.177V493.265M731.211 456.177H759.013M731.211 493.265V530.352M731.211 493.265H759.013M731.211 530.352V567.44M731.211 530.352H759.013M731.211 567.44V604.527M731.211 567.44H759.013M731.211 604.527V641.615M731.211 604.527H759.013M731.211 641.615V678.702M731.211 641.615H759.013M731.211 678.702V715.79M731.211 678.702H759.013M731.211 715.79V752.877M731.211 715.79H759.013M731.211 752.877H759.013M759.013 11.127V48.2145M759.013 11.127H786.816M759.013 48.2145V85.302M759.013 48.2145H786.816M759.013 85.302V122.39M759.013 85.302H786.816M759.013 122.39V159.477M759.013 122.39H786.816M759.013 159.477V196.565M759.013 159.477H786.816M759.013 196.565V233.652M759.013 196.565H786.816M759.013 233.652V270.74M759.013 233.652H786.816M759.013 270.74V307.827M759.013 270.74H786.816M759.013 307.827V344.915M759.013 307.827H786.816M759.013 344.915V382.002M759.013 344.915H786.816M759.013 382.002V419.09M759.013 382.002H786.816M759.013 419.09V456.177M759.013 419.09H786.816M759.013 456.177V493.265M759.013 456.177H786.816M759.013 493.265V530.352M759.013 493.265H786.816M759.013 530.352V567.44M759.013 530.352H786.816M759.013 567.44V604.527M759.013 567.44H786.816M759.013 604.527V641.615M759.013 604.527H786.816M759.013 641.615V678.702M759.013 641.615H786.816M759.013 678.702V715.79M759.013 678.702H786.816M759.013 715.79V752.877M759.013 715.79H786.816M759.013 752.877H786.816M786.816 11.127V48.2145M786.816 11.127H814.619M786.816 48.2145V85.302M786.816 48.2145H814.619M786.816 85.302V122.39M786.816 85.302H814.619M786.816 122.39V159.477M786.816 122.39H814.619M786.816 159.477V196.565M786.816 159.477H814.619M786.816 196.565V233.652M786.816 196.565H814.619M786.816 233.652V270.74M786.816 233.652H814.619M786.816 270.74V307.827M786.816 270.74H814.619M786.816 307.827V344.915M786.816 307.827H814.619M786.816 344.915V382.002M786.816 344.915H814.619M786.816 382.002V419.09M786.816 382.002H814.619M786.816 419.09V456.177M786.816 419.09H814.619M786.816 456.177V493.265M786.816 456.177H814.619M786.816 493.265V530.352M786.816 493.265H814.619M786.816 530.352V567.44M786.816 530.352H814.619M786.816 567.44V604.527M786.816 567.44H814.619M786.816 604.527V641.615M786.816 604.527H814.619M786.816 641.615V678.702M786.816 641.615H814.619M786.816 678.702V715.79M786.816 678.702H814.619M786.816 715.79V752.877M786.816 715.79H814.619M786.816 752.877H814.619M814.619 11.127V48.2145M814.619 11.127H842.421M814.619 48.2145V85.302M814.619 48.2145H842.421M814.619 85.302V122.39M814.619 85.302H842.421M814.619 122.39V159.477M814.619 122.39H842.421M814.619 159.477V196.565M814.619 159.477H842.421M814.619 196.565V233.652M814.619 196.565H842.421M814.619 233.652V270.74M814.619 233.652H842.421M814.619 270.74V307.827M814.619 270.74H842.421M814.619 307.827V344.915M814.619 307.827H842.421M814.619 344.915V382.002M814.619 344.915H842.421M814.619 382.002V419.09M814.619 382.002H842.421M814.619 419.09V456.177M814.619 419.09H842.421M814.619 456.177V493.265M814.619 456.177H842.421M814.619 493.265V530.352M814.619 493.265H842.421M814.619 530.352V567.44M814.619 530.352H842.421M814.619 567.44V604.527M814.619 567.44H842.421M814.619 604.527V641.615M814.619 604.527H842.421M814.619 641.615V678.702M814.619 641.615H842.421M814.619 678.702V715.79M814.619 678.702H842.421M814.619 715.79V752.877M814.619 715.79H842.421M814.619 752.877H842.421M842.421 11.127V48.2145M842.421 11.127H870.224M842.421 48.2145V85.302M842.421 48.2145H870.224M842.421 85.302V122.39M842.421 85.302H870.224M842.421 122.39V159.477M842.421 122.39H870.224M842.421 159.477V196.565M842.421 159.477H870.224M842.421 196.565V233.652M842.421 196.565H870.224M842.421 233.652V270.74M842.421 233.652H870.224M842.421 270.74V307.827M842.421 270.74H870.224M842.421 307.827V344.915M842.421 307.827H870.224M842.421 344.915V382.002M842.421 344.915H870.224M842.421 382.002V419.09M842.421 382.002H870.224M842.421 419.09V456.177M842.421 419.09H870.224M842.421 456.177V493.265M842.421 456.177H870.224M842.421 493.265V530.352M842.421 493.265H870.224M842.421 530.352V567.44M842.421 530.352H870.224M842.421 567.44V604.527M842.421 567.44H870.224M842.421 604.527V641.615M842.421 604.527H870.224M842.421 641.615V678.702M842.421 641.615H870.224M842.421 678.702V715.79M842.421 678.702H870.224M842.421 715.79V752.877M842.421 715.79H870.224M842.421 752.877H870.224M870.224 11.127V48.2145M870.224 11.127H898.027M870.224 48.2145V85.302M870.224 48.2145H898.027M870.224 85.302V122.39M870.224 85.302H898.027M870.224 122.39V159.477M870.224 122.39H898.027M870.224 159.477V196.565M870.224 159.477H898.027M870.224 196.565V233.652M870.224 196.565H898.027M870.224 233.652V270.74M870.224 233.652H898.027M870.224 270.74V307.827M870.224 270.74H898.027M870.224 307.827V344.915M870.224 307.827H898.027M870.224 344.915V382.002M870.224 344.915H898.027M870.224 382.002V419.09M870.224 382.002H898.027M870.224 419.09V456.177M870.224 419.09H898.027M870.224 456.177V493.265M870.224 456.177H898.027M870.224 493.265V530.352M870.224 493.265H898.027M870.224 530.352V567.44M870.224 530.352H898.027M870.224 567.44V604.527M870.224 567.44H898.027M870.224 604.527V641.615M870.224 604.527H898.027M870.224 641.615V678.702M870.224 641.615H898.027M870.224 678.702V715.79M870.224 678.702H898.027M870.224 715.79V752.877M870.224 715.79H898.027M870.224 752.877H898.027M898.027 11.127V48.2145M898.027 11.127H925.83M898.027 48.2145V85.302M898.027 48.2145H925.83M898.027 85.302V122.39M898.027 85.302H925.83M898.027 122.39V159.477M898.027 122.39H925.83M898.027 159.477V196.565M898.027 159.477H925.83M898.027 196.565V233.652M898.027 196.565H925.83M898.027 233.652V270.74M898.027 233.652H925.83M898.027 270.74V307.827M898.027 270.74H925.83M898.027 307.827V344.915M898.027 307.827H925.83M898.027 344.915V382.002M898.027 344.915H925.83M898.027 382.002V419.09M898.027 382.002H925.83M898.027 419.09V456.177M898.027 419.09H925.83M898.027 456.177V493.265M898.027 456.177H925.83M898.027 493.265V530.352M898.027 493.265H925.83M898.027 530.352V567.44M898.027 530.352H925.83M898.027 567.44V604.527M898.027 567.44H925.83M898.027 604.527V641.615M898.027 604.527H925.83M898.027 641.615V678.702M898.027 641.615H925.83M898.027 678.702V715.79M898.027 678.702H925.83M898.027 715.79V752.877M898.027 715.79H925.83M898.027 752.877H925.83M925.83 11.127V48.2145M925.83 11.127H953.632M925.83 48.2145V85.302M925.83 48.2145H953.632M925.83 85.302V122.39M925.83 85.302H953.632M925.83 122.39V159.477M925.83 122.39H953.632M925.83 159.477V196.565M925.83 159.477H953.632M925.83 196.565V233.652M925.83 196.565H953.632M925.83 233.652V270.74M925.83 233.652H953.632M925.83 270.74V307.827M925.83 270.74H953.632M925.83 307.827V344.915M925.83 307.827H953.632M925.83 344.915V382.002M925.83 344.915H953.632M925.83 382.002V419.09M925.83 382.002H953.632M925.83 419.09V456.177M925.83 419.09H953.632M925.83 456.177V493.265M925.83 456.177H953.632M925.83 493.265V530.352M925.83 493.265H953.632M925.83 530.352V567.44M925.83 530.352H953.632M925.83 567.44V604.527M925.83 567.44H953.632M925.83 604.527V641.615M925.83 604.527H953.632M925.83 641.615V678.702M925.83 641.615H953.632M925.83 678.702V715.79M925.83 678.702H953.632M925.83 715.79V752.877M925.83 715.79H953.632M925.83 752.877H953.632M953.632 11.127V48.2145M953.632 11.127H981.435M953.632 48.2145V85.302M953.632 48.2145H981.435M953.632 85.302V122.39M953.632 85.302H981.435M953.632 122.39V159.477M953.632 122.39H981.435M953.632 159.477V196.565M953.632 159.477H981.435M953.632 196.565V233.652M953.632 196.565H981.435M953.632 233.652V270.74M953.632 233.652H981.435M953.632 270.74V307.827M953.632 270.74H981.435M953.632 307.827V344.915M953.632 307.827H981.435M953.632 344.915V382.002M953.632 344.915H981.435M953.632 382.002V419.09M953.632 382.002H981.435M953.632 419.09V456.177M953.632 419.09H981.435M953.632 456.177V493.265M953.632 456.177H981.435M953.632 493.265V530.352M953.632 493.265H981.435M953.632 530.352V567.44M953.632 530.352H981.435M953.632 567.44V604.527M953.632 567.44H981.435M953.632 604.527V641.615M953.632 604.527H981.435M953.632 641.615V678.702M953.632 641.615H981.435M953.632 678.702V715.79M953.632 678.702H981.435M953.632 715.79V752.877M953.632 715.79H981.435M953.632 752.877H981.435M981.435 11.127V48.2145M981.435 11.127H1009.24M981.435 48.2145V85.302M981.435 48.2145H1009.24M981.435 85.302V122.39M981.435 85.302H1009.24M981.435 122.39V159.477M981.435 122.39H1009.24M981.435 159.477V196.565M981.435 159.477H1009.24M981.435 196.565V233.652M981.435 196.565H1009.24M981.435 233.652V270.74M981.435 233.652H1009.24M981.435 270.74V307.827M981.435 270.74H1009.24M981.435 307.827V344.915M981.435 307.827H1009.24M981.435 344.915V382.002M981.435 344.915H1009.24M981.435 382.002V419.09M981.435 382.002H1009.24M981.435 419.09V456.177M981.435 419.09H1009.24M981.435 456.177V493.265M981.435 456.177H1009.24M981.435 493.265V530.352M981.435 493.265H1009.24M981.435 530.352V567.44M981.435 530.352H1009.24M981.435 567.44V604.527M981.435 567.44H1009.24M981.435 604.527V641.615M981.435 604.527H1009.24M981.435 641.615V678.702M981.435 641.615H1009.24M981.435 678.702V715.79M981.435 678.702H1009.24M981.435 715.79V752.877M981.435 715.79H1009.24M981.435 752.877H1009.24M1009.24 11.127V48.2145M1009.24 11.127H1037.04M1009.24 48.2145V85.302M1009.24 48.2145H1037.04M1009.24 85.302V122.39M1009.24 85.302H1037.04M1009.24 122.39V159.477M1009.24 122.39H1037.04M1009.24 159.477V196.565M1009.24 159.477H1037.04M1009.24 196.565V233.652M1009.24 196.565H1037.04M1009.24 233.652V270.74M1009.24 233.652H1037.04M1009.24 270.74V307.827M1009.24 270.74H1037.04M1009.24 307.827V344.915M1009.24 307.827H1037.04M1009.24 344.915V382.002M1009.24 344.915H1037.04M1009.24 382.002V419.09M1009.24 382.002H1037.04M1009.24 419.09V456.177M1009.24 419.09H1037.04M1009.24 456.177V493.265M1009.24 456.177H1037.04M1009.24 493.265V530.352M1009.24 493.265H1037.04M1009.24 530.352V567.44M1009.24 530.352H1037.04M1009.24 567.44V604.527M1009.24 567.44H1037.04M1009.24 604.527V641.615M1009.24 604.527H1037.04M1009.24 641.615V678.702M1009.24 641.615H1037.04M1009.24 678.702V715.79M1009.24 678.702H1037.04M1009.24 715.79V752.877M1009.24 715.79H1037.04M1009.24 752.877H1037.04M1037.04 11.127V48.2145M1037.04 11.127H1064.84M1037.04 48.2145V85.302M1037.04 48.2145H1064.84M1037.04 85.302V122.39M1037.04 85.302H1064.84M1037.04 122.39V159.477M1037.04 122.39H1064.84M1037.04 159.477V196.565M1037.04 159.477H1064.84M1037.04 196.565V233.652M1037.04 196.565H1064.84M1037.04 233.652V270.74M1037.04 233.652H1064.84M1037.04 270.74V307.827M1037.04 270.74H1064.84M1037.04 307.827V344.915M1037.04 307.827H1064.84M1037.04 344.915V382.002M1037.04 344.915H1064.84M1037.04 382.002V419.09M1037.04 382.002H1064.84M1037.04 419.09V456.177M1037.04 419.09H1064.84M1037.04 456.177V493.265M1037.04 456.177H1064.84M1037.04 493.265V530.352M1037.04 493.265H1064.84M1037.04 530.352V567.44M1037.04 530.352H1064.84M1037.04 567.44V604.527M1037.04 567.44H1064.84M1037.04 604.527V641.615M1037.04 604.527H1064.84M1037.04 641.615V678.702M1037.04 641.615H1064.84M1037.04 678.702V715.79M1037.04 678.702H1064.84M1037.04 715.79V752.877M1037.04 715.79H1064.84M1037.04 752.877H1064.84M1064.84 11.127V48.2145M1064.84 11.127H1092.65M1064.84 48.2145V85.302M1064.84 48.2145H1092.65M1064.84 85.302V122.39M1064.84 85.302H1092.65M1064.84 122.39V159.477M1064.84 122.39H1092.65M1064.84 159.477V196.565M1064.84 159.477H1092.65M1064.84 196.565V233.652M1064.84 196.565H1092.65M1064.84 233.652V270.74M1064.84 233.652H1092.65M1064.84 270.74V307.827M1064.84 270.74H1092.65M1064.84 307.827V344.915M1064.84 307.827H1092.65M1064.84 344.915V382.002M1064.84 344.915H1092.65M1064.84 382.002V419.09M1064.84 382.002H1092.65M1064.84 419.09V456.177M1064.84 419.09H1092.65M1064.84 456.177V493.265M1064.84 456.177H1092.65M1064.84 493.265V530.352M1064.84 493.265H1092.65M1064.84 530.352V567.44M1064.84 530.352H1092.65M1064.84 567.44V604.527M1064.84 567.44H1092.65M1064.84 604.527V641.615M1064.84 604.527H1092.65M1064.84 641.615V678.702M1064.84 641.615H1092.65M1064.84 678.702V715.79M1064.84 678.702H1092.65M1064.84 715.79V752.877M1064.84 715.79H1092.65M1064.84 752.877H1092.65M1092.65 11.127V48.2145M1092.65 11.127H1120.45M1092.65 48.2145V85.302M1092.65 48.2145H1120.45M1092.65 85.302V122.39M1092.65 85.302H1120.45M1092.65 122.39V159.477M1092.65 122.39H1120.45M1092.65 159.477V196.565M1092.65 159.477H1120.45M1092.65 196.565V233.652M1092.65 196.565H1120.45M1092.65 233.652V270.74M1092.65 233.652H1120.45M1092.65 270.74V307.827M1092.65 270.74H1120.45M1092.65 307.827V344.915M1092.65 307.827H1120.45M1092.65 344.915V382.002M1092.65 344.915H1120.45M1092.65 382.002V419.09M1092.65 382.002H1120.45M1092.65 419.09V456.177M1092.65 419.09H1120.45M1092.65 456.177V493.265M1092.65 456.177H1120.45M1092.65 493.265V530.352M1092.65 493.265H1120.45M1092.65 530.352V567.44M1092.65 530.352H1120.45M1092.65 567.44V604.527M1092.65 567.44H1120.45M1092.65 604.527V641.615M1092.65 604.527H1120.45M1092.65 641.615V678.702M1092.65 641.615H1120.45M1092.65 678.702V715.79M1092.65 678.702H1120.45M1092.65 715.79V752.877M1092.65 715.79H1120.45M1092.65 752.877H1120.45M1120.45 11.127V48.2145M1120.45 11.127H1148.25M1120.45 48.2145V85.302M1120.45 48.2145H1148.25M1120.45 85.302V122.39M1120.45 85.302H1148.25M1120.45 122.39V159.477M1120.45 122.39H1148.25M1120.45 159.477V196.565M1120.45 159.477H1148.25M1120.45 196.565V233.652M1120.45 196.565H1148.25M1120.45 233.652V270.74M1120.45 233.652H1148.25M1120.45 270.74V307.827M1120.45 270.74H1148.25M1120.45 307.827V344.915M1120.45 307.827H1148.25M1120.45 344.915V382.002M1120.45 344.915H1148.25M1120.45 382.002V419.09M1120.45 382.002H1148.25M1120.45 419.09V456.177M1120.45 419.09H1148.25M1120.45 456.177V493.265M1120.45 456.177H1148.25M1120.45 493.265V530.352M1120.45 493.265H1148.25M1120.45 530.352V567.44M1120.45 530.352H1148.25M1120.45 567.44V604.527M1120.45 567.44H1148.25M1120.45 604.527V641.615M1120.45 604.527H1148.25M1120.45 641.615V678.702M1120.45 641.615H1148.25M1120.45 678.702V715.79M1120.45 678.702H1148.25M1120.45 715.79V752.877M1120.45 715.79H1148.25M1120.45 752.877H1148.25M1148.25 11.127V48.2145M1148.25 11.127H1176.05M1148.25 48.2145V85.302M1148.25 48.2145H1176.05M1148.25 85.302V122.39M1148.25 85.302H1176.05M1148.25 122.39V159.477M1148.25 122.39H1176.05M1148.25 159.477V196.565M1148.25 159.477H1176.05M1148.25 196.565V233.652M1148.25 196.565H1176.05M1148.25 233.652V270.74M1148.25 233.652H1176.05M1148.25 270.74V307.827M1148.25 270.74H1176.05M1148.25 307.827V344.915M1148.25 307.827H1176.05M1148.25 344.915V382.002M1148.25 344.915H1176.05M1148.25 382.002V419.09M1148.25 382.002H1176.05M1148.25 419.09V456.177M1148.25 419.09H1176.05M1148.25 456.177V493.265M1148.25 456.177H1176.05M1148.25 493.265V530.352M1148.25 493.265H1176.05M1148.25 530.352V567.44M1148.25 530.352H1176.05M1148.25 567.44V604.527M1148.25 567.44H1176.05M1148.25 604.527V641.615M1148.25 604.527H1176.05M1148.25 641.615V678.702M1148.25 641.615H1176.05M1148.25 678.702V715.79M1148.25 678.702H1176.05M1148.25 715.79V752.877M1148.25 715.79H1176.05M1148.25 752.877H1176.05M1176.05 11.127V48.2145M1176.05 11.127H1203.86M1176.05 48.2145V85.302M1176.05 48.2145H1203.86M1176.05 85.302V122.39M1176.05 85.302H1203.86M1176.05 122.39V159.477M1176.05 122.39H1203.86M1176.05 159.477V196.565M1176.05 159.477H1203.86M1176.05 196.565V233.652M1176.05 196.565H1203.86M1176.05 233.652V270.74M1176.05 233.652H1203.86M1176.05 270.74V307.827M1176.05 270.74H1203.86M1176.05 307.827V344.915M1176.05 307.827H1203.86M1176.05 344.915V382.002M1176.05 344.915H1203.86M1176.05 382.002V419.09M1176.05 382.002H1203.86M1176.05 419.09V456.177M1176.05 419.09H1203.86M1176.05 456.177V493.265M1176.05 456.177H1203.86M1176.05 493.265V530.352M1176.05 493.265H1203.86M1176.05 530.352V567.44M1176.05 530.352H1203.86M1176.05 567.44V604.527M1176.05 567.44H1203.86M1176.05 604.527V641.615M1176.05 604.527H1203.86M1176.05 641.615V678.702M1176.05 641.615H1203.86M1176.05 678.702V715.79M1176.05 678.702H1203.86M1176.05 715.79V752.877M1176.05 715.79H1203.86M1176.05 752.877H1203.86M1203.86 11.127V48.2145M1203.86 11.127H1231.66V48.2145M1203.86 48.2145V85.302M1203.86 48.2145H1231.66M1203.86 85.302V122.39M1203.86 85.302H1231.66M1203.86 122.39V159.477M1203.86 122.39H1231.66M1203.86 159.477V196.565M1203.86 159.477H1231.66M1203.86 196.565V233.652M1203.86 196.565H1231.66M1203.86 233.652V270.74M1203.86 233.652H1231.66M1203.86 270.74V307.827M1203.86 270.74H1231.66M1203.86 307.827V344.915M1203.86 307.827H1231.66M1203.86 344.915V382.002M1203.86 344.915H1231.66M1203.86 382.002V419.09M1203.86 382.002H1231.66M1203.86 419.09V456.177M1203.86 419.09H1231.66M1203.86 456.177V493.265M1203.86 456.177H1231.66M1203.86 493.265V530.352M1203.86 493.265H1231.66M1203.86 530.352V567.44M1203.86 530.352H1231.66M1203.86 567.44V604.527M1203.86 567.44H1231.66M1203.86 604.527V641.615M1203.86 604.527H1231.66M1203.86 641.615V678.702M1203.86 641.615H1231.66M1203.86 678.702V715.79M1203.86 678.702H1231.66M1203.86 715.79V752.877M1203.86 715.79H1231.66M1203.86 752.877H1231.66V715.79M1231.66 48.2145V85.302M1231.66 85.302V122.39M1231.66 122.39V159.477M1231.66 159.477V196.565M1231.66 196.565V233.652M1231.66 233.652V270.74M1231.66 270.74V307.827M1231.66 307.827V344.915M1231.66 344.915V382.002M1231.66 382.002V419.09M1231.66 419.09V456.177M1231.66 456.177V493.265M1231.66 493.265V530.352M1231.66 530.352V567.44M1231.66 567.44V604.527M1231.66 604.527V641.615M1231.66 641.615V678.702M1231.66 678.702V715.79" stroke="url(#paint0_radial_1838_11735)" stroke-opacity="0.36" stroke-width="0.805493"/>
</g>
<g style="mix-blend-mode:soft-light" opacity="0.8">
<path d="M119.552 148.35V159.476M119.552 159.476V170.603M119.552 159.476H111.211M119.552 159.476H127.892M119.552 445.05V456.177M119.552 456.177V467.303M119.552 456.177H111.211M119.552 456.177H127.892M119.552 741.75V752.877M119.552 752.877V764.003M119.552 752.877H111.211M119.552 752.877H127.892M341.973 148.35V159.476M341.973 159.476V170.603M341.973 159.476H333.632M341.973 159.476H350.314M341.973 445.05V456.177M341.973 456.177V467.303M341.973 456.177H333.632M341.973 456.177H350.314M341.973 741.75V752.877M341.973 752.877V764.003M341.973 752.877H333.632M341.973 752.877H350.314M564.395 148.35V159.476M564.395 159.476V170.603M564.395 159.476H556.054M564.395 159.476H572.735M564.395 445.05V456.177M564.395 456.177V467.303M564.395 456.177H556.054M564.395 456.177H572.735M564.395 741.75V752.877M564.395 752.877V764.003M564.395 752.877H556.054M564.395 752.877H572.735M786.816 148.35V159.476M786.816 159.476V170.603M786.816 159.476H778.475M786.816 159.476H795.157M786.816 445.05V456.177M786.816 456.177V467.303M786.816 456.177H778.475M786.816 456.177H795.157M786.816 741.75V752.877M786.816 752.877V764.003M786.816 752.877H778.475M786.816 752.877H795.157M1009.24 148.35V159.476M1009.24 159.476V170.603M1009.24 159.476H1000.9M1009.24 159.476H1017.58M1009.24 445.05V456.177M1009.24 456.177V467.303M1009.24 456.177H1000.9M1009.24 456.177H1017.58M1009.24 741.75V752.877M1009.24 752.877V764.003M1009.24 752.877H1000.9M1009.24 752.877H1017.58M1231.66 148.35V159.476M1231.66 159.476V170.603M1231.66 159.476H1223.32M1231.66 159.476H1240M1231.66 445.05V456.177M1231.66 456.177V467.303M1231.66 456.177H1223.32M1231.66 456.177H1240M1231.66 741.75V752.877M1231.66 752.877V764.003M1231.66 752.877H1223.32M1231.66 752.877H1240M119.552 0V11.1263M119.552 11.1263V22.2525M119.552 11.1263H111.211M119.552 11.1263H127.892M119.552 296.7V307.827M119.552 307.827V318.953M119.552 307.827H111.211M119.552 307.827H127.892M119.552 593.4V604.527M119.552 604.527V615.653M119.552 604.527H111.211M119.552 604.527H127.892M341.973 0V11.1263M341.973 11.1263V22.2525M341.973 11.1263H333.632M341.973 11.1263H350.314M341.973 296.7V307.827M341.973 307.827V318.953M341.973 307.827H333.632M341.973 307.827H350.314M341.973 593.4V604.527M341.973 604.527V615.653M341.973 604.527H333.632M341.973 604.527H350.314M564.395 0V11.1263M564.395 11.1263V22.2525M564.395 11.1263H556.054M564.395 11.1263H572.735M564.395 296.7V307.827M564.395 307.827V318.953M564.395 307.827H556.054M564.395 307.827H572.735M564.395 593.4V604.527M564.395 604.527V615.653M564.395 604.527H556.054M564.395 604.527H572.735M786.816 0V11.1263M786.816 11.1263V22.2525M786.816 11.1263H778.475M786.816 11.1263H795.157M786.816 296.7V307.827M786.816 307.827V318.953M786.816 307.827H778.475M786.816 307.827H795.157M786.816 593.4V604.527M786.816 604.527V615.653M786.816 604.527H778.475M786.816 604.527H795.157M1009.24 0V11.1263M1009.24 11.1263V22.2525M1009.24 11.1263H1000.9M1009.24 11.1263H1017.58M1009.24 296.7V307.827M1009.24 307.827V318.953M1009.24 307.827H1000.9M1009.24 307.827H1017.58M1009.24 593.4V604.527M1009.24 604.527V615.653M1009.24 604.527H1000.9M1009.24 604.527H1017.58M1231.66 0V11.1263M1231.66 11.1263V22.2525M1231.66 11.1263H1223.32M1231.66 11.1263H1240M1231.66 296.7V307.827M1231.66 307.827V318.953M1231.66 307.827H1223.32M1231.66 307.827H1240M1231.66 593.4V604.527M1231.66 604.527V615.653M1231.66 604.527H1223.32M1231.66 604.527H1240M8.34081 148.35V159.476M8.34081 159.476V170.603M8.34081 159.476H0M8.34081 159.476H16.6816M8.34081 445.05V456.177M8.34081 456.177V467.303M8.34081 456.177H0M8.34081 456.177H16.6816M8.34081 741.75V752.877M8.34081 752.877V764.003M8.34081 752.877H0M8.34081 752.877H16.6816M230.762 148.35V159.476M230.762 159.476V170.603M230.762 159.476H222.422M230.762 159.476H239.103M230.762 445.05V456.177M230.762 456.177V467.303M230.762 456.177H222.422M230.762 456.177H239.103M230.762 741.75V752.877M230.762 752.877V764.003M230.762 752.877H222.422M230.762 752.877H239.103M453.184 148.35V159.476M453.184 159.476V170.603M453.184 159.476H444.843M453.184 159.476H461.525M453.184 445.05V456.177M453.184 456.177V467.303M453.184 456.177H444.843M453.184 456.177H461.525M453.184 741.75V752.877M453.184 752.877V764.003M453.184 752.877H444.843M453.184 752.877H461.525M675.605 148.35V159.476M675.605 159.476V170.603M675.605 159.476H667.265M675.605 159.476H683.946M675.605 445.05V456.177M675.605 456.177V467.303M675.605 456.177H667.265M675.605 456.177H683.946M675.605 741.75V752.877M675.605 752.877V764.003M675.605 752.877H667.265M675.605 752.877H683.946M898.027 148.35V159.476M898.027 159.476V170.603M898.027 159.476H889.686M898.027 159.476H906.368M898.027 445.05V456.177M898.027 456.177V467.303M898.027 456.177H889.686M898.027 456.177H906.368M898.027 741.75V752.877M898.027 752.877V764.003M898.027 752.877H889.686M898.027 752.877H906.368M1120.45 148.35V159.476M1120.45 159.476V170.603M1120.45 159.476H1112.11M1120.45 159.476H1128.79M1120.45 445.05V456.177M1120.45 456.177V467.303M1120.45 456.177H1112.11M1120.45 456.177H1128.79M1120.45 741.75V752.877M1120.45 752.877V764.003M1120.45 752.877H1112.11M1120.45 752.877H1128.79M8.34081 5.46968e-05V11.1263M8.34081 11.1263V22.2526M8.34081 11.1263H0M8.34081 11.1263H16.6816M8.34081 296.7V307.827M8.34081 307.827V318.953M8.34081 307.827H0M8.34081 307.827H16.6816M8.34081 593.4V604.527M8.34081 604.527V615.653M8.34081 604.527H0M8.34081 604.527H16.6816M230.762 0V11.1263M230.762 11.1263V22.2525M230.762 11.1263H222.422M230.762 11.1263H239.103M230.762 296.7V307.827M230.762 307.827V318.953M230.762 307.827H222.422M230.762 307.827H239.103M230.762 593.4V604.527M230.762 604.527V615.653M230.762 604.527H222.422M230.762 604.527H239.103M453.184 0V11.1263M453.184 11.1263V22.2525M453.184 11.1263H444.843M453.184 11.1263H461.525M453.184 296.7V307.827M453.184 307.827V318.953M453.184 307.827H444.843M453.184 307.827H461.525M453.184 593.4V604.527M453.184 604.527V615.653M453.184 604.527H444.843M453.184 604.527H461.525M675.605 0V11.1263M675.605 11.1263V22.2525M675.605 11.1263H667.265M675.605 11.1263H683.946M675.605 296.7V307.827M675.605 307.827V318.953M675.605 307.827H667.265M675.605 307.827H683.946M675.605 593.4V604.527M675.605 604.527V615.653M675.605 604.527H667.265M675.605 604.527H683.946M898.027 0V11.1263M898.027 11.1263V22.2525M898.027 11.1263H889.686M898.027 11.1263H906.368M898.027 296.7V307.827M898.027 307.827V318.953M898.027 307.827H889.686M898.027 307.827H906.368M898.027 593.4V604.527M898.027 604.527V615.653M898.027 604.527H889.686M898.027 604.527H906.368M1120.45 0V11.1263M1120.45 11.1263V22.2525M1120.45 11.1263H1112.11M1120.45 11.1263H1128.79M1120.45 296.7V307.827M1120.45 307.827V318.953M1120.45 307.827H1112.11M1120.45 307.827H1128.79M1120.45 593.4V604.527M1120.45 604.527V615.653M1120.45 604.527H1112.11M1120.45 604.527H1128.79" stroke="url(#paint1_radial_1838_11735)" stroke-opacity="0.36" stroke-width="1.61099"/>
</g>
<defs>
<radialGradient id="paint0_radial_1838_11735" cx="0" cy="0" r="1" gradientUnits="userSpaceOnUse" gradientTransform="translate(620 382.002) rotate(90) scale(370.875 611.659)">
<stop stop-color="white"/>
<stop offset="1" stop-color="white" stop-opacity="0"/>
</radialGradient>
<radialGradient id="paint1_radial_1838_11735" cx="0" cy="0" r="1" gradientUnits="userSpaceOnUse" gradientTransform="translate(620 382.001) rotate(90) scale(382.001 620)">
<stop stop-color="white"/>
<stop offset="1" stop-color="white" stop-opacity="0"/>
</radialGradient>
</defs>
</svg>
